<svg width="22" height="22" viewBox="0 0 22 22" fill="none" xmlns="http://www.w3.org/2000/svg">
<path d="M7.825 11C7.825 11.5523 7.37729 12 6.825 12C6.27272 12 5.825 11.5523 5.825 11C5.825 10.4477 6.27272 10 6.825 10C7.37729 10 7.825 10.4477 7.825 11Z" fill="#9A9BB1"/>
<path d="M11.825 11C11.825 11.5523 11.3773 12 10.825 12C10.2727 12 9.825 11.5523 9.825 11C9.825 10.4477 10.2727 10 10.825 10C11.3773 10 11.825 10.4477 11.825 11Z" fill="#9A9BB1"/>
<path d="M15.825 11C15.825 11.5523 15.3773 12 14.825 12C14.2727 12 13.825 11.5523 13.825 11C13.825 10.4477 14.2727 10 14.825 10C15.3773 10 15.825 10.4477 15.825 11Z" fill="#9A9BB1"/>
<path fill-rule="evenodd" clip-rule="evenodd" d="M21.575 11C21.575 5.06294 16.7621 0.25 10.825 0.25C4.88794 0.25 0.0750008 5.06294 0.0750008 11C0.0750008 12.7183 0.478708 14.3445 1.19713 15.7869C1.30433 16.0021 1.32708 16.2219 1.27761 16.4068L0.681997 18.6328C0.274275 20.1566 1.66837 21.5507 3.1922 21.143L5.41824 20.5474C5.60314 20.4979 5.82291 20.5207 6.03815 20.6279C7.48053 21.3463 9.10669 21.75 10.825 21.75C16.7621 21.75 21.575 16.9371 21.575 11ZM10.825 1.75C15.9336 1.75 20.075 5.89137 20.075 11C20.075 16.1086 15.9336 20.25 10.825 20.25C9.34394 20.25 7.94621 19.9025 6.70691 19.2852C6.20951 19.0375 5.61473 18.9421 5.03053 19.0984L2.80449 19.694C2.39566 19.8034 2.02164 19.4293 2.13103 19.0205L2.72663 16.7945C2.88294 16.2103 2.78754 15.6155 2.5398 15.1181C1.92253 13.8788 1.575 12.4811 1.575 11C1.575 5.89137 5.71637 1.75 10.825 1.75Z" fill="#9A9BB1"/>
</svg>
